<?xml version="1.0" encoding="utf-8"?>
<!-- Generator: Adobe Illustrator 16.0.0, SVG Export Plug-In . SVG Version: 6.00 Build 0)  -->
<!DOCTYPE svg PUBLIC "-//W3C//DTD SVG 1.1//EN" "http://www.w3.org/Graphics/SVG/1.1/DTD/svg11.dtd">
<svg version="1.1" xmlns="http://www.w3.org/2000/svg" xmlns:xlink="http://www.w3.org/1999/xlink" x="0px" y="0px"
	 width="595.28px" height="841.89px" viewBox="0 0 595.28 841.89" enable-background="new 0 0 595.28 841.89" xml:space="preserve">
<g id="Réteg_1">
	<rect x="1803.153" y="-141.381" fill="#FFFFFF" width="599.97" height="817.757"/>
	<g>
		<polygon fill="#377D32" points="752.797,426.01 735.679,361.657 707.17,361.657 707.17,455.999 724.868,455.999 724.868,381.736 
			743.529,455.999 761.871,455.999 780.598,381.736 780.598,455.999 798.292,455.999 798.292,361.657 769.724,361.657 		"/>
		<path fill="#377D32" d="M870.211,413.849c0,7.464-0.279,12.807-0.84,16.022c-0.556,3.218-2.208,5.931-4.955,8.143
			c-2.743,2.209-6.82,3.313-12.225,3.313c-5.32,0-9.516-1.168-12.582-3.506c-3.066-2.341-5.01-5.439-5.825-9.301
			c-0.47-2.402-0.707-7.658-0.707-15.766v-51.097h-19.048v50.323c0,10.558,0.621,18.535,1.865,23.939
			c0.857,3.649,2.639,7.134,5.342,10.458s6.381,6.027,11.036,8.107c4.656,2.083,11.487,3.122,20.498,3.122
			c7.464,0,13.512-0.955,18.147-2.864c4.632-1.908,8.332-4.472,11.101-7.689c2.767-3.218,4.664-7.162,5.696-11.841
			c1.029-4.677,1.543-12.675,1.543-24.004v-49.551h-19.047V413.849z"/>
		<polygon fill="#377D32" points="960.979,398.791 923.652,398.791 923.652,361.657 904.605,361.657 904.605,455.999 
			923.652,455.999 923.652,414.749 960.979,414.749 960.979,455.999 980.026,455.999 980.026,361.657 960.979,361.657 		"/>
		<path fill="#377D32" d="M1026.522,361.657l-36.745,94.342h20.207l7.787-21.428h37.709l8.239,21.428h20.723l-37.777-94.342
			H1026.522z M1023.629,418.674l12.74-35.006l13,35.006H1023.629z"/>
		<polygon fill="#377D32" points="1094.574,377.618 1144.128,377.618 1094.574,438.818 1094.574,455.999 1169.225,455.999 
			1169.225,440.104 1117.552,440.104 1169.225,376.458 1169.225,361.657 1094.574,361.657 		"/>
		<polygon fill="#377D32" points="942.365,326.191 707.17,280.098 707.17,348.454 724.868,348.454 724.868,306.97 942.27,349.91 
			1151.528,306.97 1151.528,348.454 1169.225,348.454 1169.225,280.098 		"/>
		<polygon fill="#377D32" points="1151.528,483.146 1136.438,483.146 1136.438,500.843 1151.528,500.843 1169.225,500.843 
			1169.225,483.146 1169.225,468.06 1151.528,468.06 		"/>
		<polygon fill="#377D32" points="724.868,468.06 707.17,468.06 707.17,483.146 707.17,500.843 724.868,500.843 739.958,500.843 
			739.958,483.146 724.868,483.146 		"/>
	</g>
	<g>
		<polygon fill="#377D32" points="967.907,133.616 958.306,97.521 942.315,97.521 942.315,150.437 952.242,150.437 952.242,108.783 
			962.709,150.437 972.997,150.437 983.501,108.783 983.501,150.437 993.426,150.437 993.426,97.521 977.401,97.521 		"/>
		<path fill="#377D32" d="M1033.765,126.794c0,4.187-0.156,7.183-0.471,8.987c-0.312,1.805-1.238,3.327-2.779,4.567
			c-1.539,1.239-3.825,1.858-6.856,1.858c-2.984,0-5.338-0.655-7.058-1.966c-1.72-1.313-2.81-3.051-3.268-5.217
			c-0.264-1.348-0.396-4.295-0.396-8.843v-28.66h-10.684v28.226c0,5.922,0.348,10.396,1.046,13.428
			c0.481,2.047,1.48,4.001,2.996,5.866c1.517,1.865,3.579,3.381,6.19,4.547c2.611,1.168,6.443,1.751,11.497,1.751
			c4.187,0,7.579-0.536,10.179-1.607c2.599-1.07,4.674-2.508,6.227-4.313c1.552-1.805,2.616-4.017,3.195-6.641
			c0.577-2.624,0.865-7.109,0.865-13.464V97.521h-10.684V126.794z"/>
		<polygon fill="#377D32" points="1084.677,118.348 1063.74,118.348 1063.74,97.521 1053.057,97.521 1053.057,150.437 
			1063.74,150.437 1063.74,127.299 1084.677,127.299 1084.677,150.437 1095.36,150.437 1095.36,97.521 1084.677,97.521 		"/>
		<path fill="#377D32" d="M1121.44,97.521l-20.611,52.916h11.335l4.367-12.019h21.151l4.621,12.019h11.623l-21.189-52.916H1121.44z
			 M1119.817,129.501l7.146-19.635l7.292,19.635H1119.817z"/>
		<polygon fill="#377D32" points="1159.61,106.473 1187.405,106.473 1159.61,140.8 1159.61,150.437 1201.481,150.437 
			1201.481,141.521 1172.498,141.521 1201.481,105.822 1201.481,97.521 1159.61,97.521 		"/>
		<polygon fill="#377D32" points="1074.236,77.627 942.315,51.774 942.315,90.115 952.242,90.115 952.242,66.847 1074.183,90.932 
			1191.556,66.847 1191.556,90.115 1201.481,90.115 1201.481,51.774 		"/>
		<polygon fill="#377D32" points="1191.556,165.664 1183.091,165.664 1183.091,175.589 1191.556,175.589 1201.481,175.589 
			1201.481,165.664 1201.481,157.201 1191.556,157.201 		"/>
		<polygon fill="#377D32" points="952.242,157.201 942.315,157.201 942.315,165.664 942.315,175.589 952.242,175.589 
			960.706,175.589 960.706,165.664 952.242,165.664 		"/>
	</g>
	<polygon fill="#009FE3" points="1943.667,116.6 1934.065,80.504 1918.075,80.504 1918.075,133.42 1928.002,133.42 1928.002,91.767 
		1938.469,133.42 1948.757,133.42 1959.261,91.767 1959.261,133.42 1969.186,133.42 1969.186,80.504 1953.161,80.504 	"/>
	<path fill="#009FE3" d="M2009.524,109.778c0,4.187-0.156,7.183-0.471,8.987c-0.312,1.805-1.238,3.327-2.779,4.567
		c-1.539,1.239-3.825,1.858-6.856,1.858c-2.984,0-5.338-0.655-7.058-1.966c-1.72-1.313-2.81-3.051-3.268-5.217
		c-0.264-1.348-0.396-4.295-0.396-8.843v-28.66h-10.684v28.226c0,5.922,0.348,10.396,1.046,13.428
		c0.481,2.047,1.48,4.001,2.996,5.866c1.517,1.865,3.579,3.381,6.19,4.547c2.611,1.168,6.443,1.751,11.497,1.751
		c4.187,0,7.579-0.536,10.179-1.607c2.599-1.07,4.674-2.508,6.227-4.313c1.552-1.805,2.616-4.017,3.195-6.641
		c0.577-2.624,0.865-7.109,0.865-13.464V80.504h-10.684V109.778z"/>
	<polygon fill="#009FE3" points="2060.437,101.332 2039.5,101.332 2039.5,80.504 2028.816,80.504 2028.816,133.42 2039.5,133.42 
		2039.5,110.283 2060.437,110.283 2060.437,133.42 2071.12,133.42 2071.12,80.504 2060.437,80.504 	"/>
	<path fill="#009FE3" d="M2097.2,80.504l-20.611,52.916h11.335l4.367-12.019h21.151l4.621,12.019h11.623l-21.189-52.916H2097.2z
		 M2095.577,112.485l7.146-19.635l7.292,19.635H2095.577z"/>
	<polygon fill="#009FE3" points="2135.37,89.457 2163.165,89.457 2135.37,123.784 2135.37,133.42 2177.241,133.42 2177.241,124.505 
		2148.258,124.505 2177.241,88.806 2177.241,80.504 2135.37,80.504 	"/>
	<polygon fill="#F9B233" points="2049.996,60.611 1918.075,34.758 1918.075,73.099 1928.002,73.099 1928.002,49.831 
		2049.942,73.916 2167.315,49.831 2167.315,73.099 2177.241,73.099 2177.241,34.758 	"/>
	<polygon fill="#F9B233" points="2167.315,148.648 2158.851,148.648 2158.851,158.574 2167.315,158.574 2177.241,158.574 
		2177.241,148.648 2177.241,140.185 2167.315,140.185 	"/>
	<polygon fill="#F9B233" points="1928.002,140.185 1918.075,140.185 1918.075,148.648 1918.075,158.574 1928.002,158.574 
		1936.466,158.574 1936.466,148.648 1928.002,148.648 	"/>
	<g>
		<polygon fill="#377D32" points="738.672,151.787 734.202,134.981 726.757,134.981 726.757,159.619 731.379,159.619 
			731.379,140.225 736.252,159.619 741.042,159.619 745.933,140.225 745.933,159.619 750.554,159.619 750.554,134.981 
			743.093,134.981 		"/>
		<path fill="#377D32" d="M769.335,148.611c0,1.949-0.072,3.345-0.219,4.185c-0.146,0.84-0.576,1.549-1.294,2.126
			c-0.717,0.577-1.781,0.865-3.192,0.865c-1.39,0-2.485-0.305-3.286-0.916c-0.801-0.611-1.308-1.42-1.521-2.429
			c-0.123-0.627-0.185-2-0.185-4.117v-13.344h-4.975v13.142c0,2.757,0.162,4.841,0.487,6.252c0.225,0.953,0.689,1.863,1.396,2.731
			c0.706,0.868,1.666,1.574,2.882,2.117c1.216,0.544,3,0.815,5.353,0.815c1.949,0,3.529-0.249,4.739-0.748
			c1.21-0.498,2.177-1.167,2.899-2.008s1.218-1.871,1.488-3.092c0.269-1.222,0.402-3.31,0.402-6.269v-12.94h-4.975V148.611z"/>
		<polygon fill="#377D32" points="793.04,144.678 783.292,144.678 783.292,134.981 778.317,134.981 778.317,159.619 
			783.292,159.619 783.292,148.846 793.04,148.846 793.04,159.619 798.015,159.619 798.015,134.981 793.04,134.981 		"/>
		<path fill="#377D32" d="M810.157,134.981l-9.597,24.638h5.277l2.033-5.596h9.849l2.151,5.596h5.411l-9.865-24.638H810.157z
			 M809.401,149.871l3.327-9.142l3.395,9.142H809.401z"/>
		<polygon fill="#377D32" points="827.929,139.149 840.87,139.149 827.929,155.132 827.929,159.619 847.424,159.619 
			847.424,155.468 833.929,155.468 847.424,138.846 847.424,134.981 827.929,134.981 		"/>
		<polygon fill="#377D32" points="788.179,125.719 726.757,113.682 726.757,131.533 731.379,131.533 731.379,120.7 788.153,131.914 
			842.803,120.7 842.803,131.533 847.424,131.533 847.424,113.682 		"/>
		<polygon fill="#377D32" points="842.803,166.708 838.861,166.708 838.861,171.33 842.803,171.33 847.424,171.33 847.424,166.708 
			847.424,162.768 842.803,162.768 		"/>
		<polygon fill="#377D32" points="731.379,162.768 726.757,162.768 726.757,166.708 726.757,171.33 731.379,171.33 735.319,171.33 
			735.319,166.708 731.379,166.708 		"/>
	</g>
	<g>
		<polygon fill="#377D32" points="735.02,66.106 732.663,57.244 728.736,57.244 728.736,70.237 731.174,70.237 731.174,60.009 
			733.744,70.237 736.271,70.237 738.85,60.009 738.85,70.237 741.287,70.237 741.287,57.244 737.352,57.244 		"/>
		<path fill="#377D32" d="M751.191,64.432c0,1.028-0.038,1.764-0.115,2.207c-0.077,0.443-0.304,0.817-0.683,1.122
			c-0.378,0.304-0.939,0.456-1.684,0.456c-0.732,0-1.311-0.16-1.733-0.483c-0.422-0.322-0.688-0.749-0.802-1.281
			c-0.064-0.331-0.098-1.055-0.098-2.171v-7.037h-2.623v6.931c0,1.454,0.085,2.553,0.257,3.297c0.118,0.503,0.363,0.983,0.735,1.44
			c0.372,0.458,0.879,0.831,1.521,1.117c0.641,0.287,1.582,0.43,2.822,0.43c1.028,0,1.861-0.132,2.499-0.395
			c0.639-0.262,1.148-0.616,1.529-1.059c0.381-0.443,0.643-0.987,0.785-1.631c0.142-0.644,0.212-1.746,0.212-3.306v-6.824h-2.623
			V64.432z"/>
		<polygon fill="#377D32" points="763.692,62.357 758.552,62.357 758.552,57.244 755.929,57.244 755.929,70.237 758.552,70.237 
			758.552,64.556 763.692,64.556 763.692,70.237 766.316,70.237 766.316,57.244 763.692,57.244 		"/>
		<path fill="#377D32" d="M772.721,57.244l-5.062,12.993h2.783l1.072-2.951h5.194l1.135,2.951h2.853l-5.202-12.993H772.721z
			 M772.322,65.096l1.754-4.821l1.791,4.821H772.322z"/>
		<polygon fill="#377D32" points="782.092,59.442 788.917,59.442 782.092,67.871 782.092,70.237 792.374,70.237 792.374,68.047 
			785.257,68.047 792.374,59.282 792.374,57.244 782.092,57.244 		"/>
		<polygon fill="#377D32" points="761.13,52.359 728.736,46.011 728.736,55.425 731.174,55.425 731.174,49.712 761.116,55.626 
			789.937,49.712 789.937,55.425 792.374,55.425 792.374,46.011 		"/>
		<polygon fill="#377D32" points="789.937,73.976 787.858,73.976 787.858,76.413 789.937,76.413 792.374,76.413 792.374,73.976 
			792.374,71.898 789.937,71.898 		"/>
		<polygon fill="#377D32" points="731.174,71.898 728.736,71.898 728.736,73.976 728.736,76.413 731.174,76.413 733.252,76.413 
			733.252,73.976 731.174,73.976 		"/>
	</g>
	<g>
		<polygon fill="#377D32" points="754.104,721.287 733.269,642.962 698.57,642.962 698.57,757.787 720.11,757.787 720.11,667.4 
			742.823,757.787 765.146,757.787 787.94,667.4 787.94,757.787 809.476,757.787 809.476,642.962 774.704,642.962 		"/>
		<path fill="#377D32" d="M897.008,706.485c0,9.084-0.34,15.587-1.021,19.501c-0.677,3.916-2.688,7.218-6.031,9.91
			c-3.34,2.688-8.302,4.033-14.879,4.033c-6.476,0-11.582-1.422-15.314-4.268c-3.731-2.849-6.097-6.62-7.09-11.319
			c-0.571-2.925-0.86-9.321-0.86-19.189v-62.191H828.63v61.249c0,12.85,0.756,22.561,2.27,29.138
			c1.044,4.441,3.212,8.683,6.502,12.728c3.29,4.046,7.767,7.337,13.433,9.868c5.666,2.535,13.981,3.8,24.947,3.8
			c9.085,0,16.445-1.162,22.088-3.486c5.638-2.323,10.142-5.442,13.511-9.358c3.368-3.916,5.677-8.717,6.933-14.411
			c1.253-5.692,1.878-15.428,1.878-29.217v-60.31h-23.183V706.485z"/>
		<polygon fill="#377D32" points="1007.483,688.158 962.053,688.158 962.053,642.962 938.871,642.962 938.871,757.787 
			962.053,757.787 962.053,707.58 1007.483,707.58 1007.483,757.787 1030.666,757.787 1030.666,642.962 1007.483,642.962 		"/>
		<path fill="#377D32" d="M1087.257,642.962l-44.723,114.825h24.594l9.478-26.08h45.896l10.027,26.08h25.222l-45.979-114.825
			H1087.257z M1083.734,712.358l15.507-42.606l15.823,42.606H1083.734z"/>
		<polygon fill="#377D32" points="1170.084,662.388 1230.395,662.388 1170.084,736.875 1170.084,757.787 1260.941,757.787 
			1260.941,738.44 1198.049,738.44 1260.941,660.976 1260.941,642.962 1170.084,642.962 		"/>
		<polygon fill="#377D32" points="984.828,599.798 698.57,543.696 698.57,626.893 720.11,626.893 720.11,576.403 984.712,628.666 
			1239.402,576.403 1239.402,626.893 1260.941,626.893 1260.941,543.696 		"/>
		<polygon fill="#377D32" points="1239.402,790.827 1221.036,790.827 1221.036,812.366 1239.402,812.366 1260.941,812.366 
			1260.941,790.827 1260.941,772.466 1239.402,772.466 		"/>
		<polygon fill="#377D32" points="720.11,772.466 698.57,772.466 698.57,790.827 698.57,812.366 720.11,812.366 738.477,812.366 
			738.477,790.827 720.11,790.827 		"/>
	</g>
	<g>
		<g>
			<polygon fill="#1D71B8" points="1407.129,107.121 1394.634,46.577 1373.824,46.577 1373.824,146.755 1386.743,146.755 
				1386.743,67.898 1400.364,124.002 1413.753,124.002 1427.421,67.898 1427.421,146.755 1440.338,146.755 1440.338,46.577 
				1419.483,46.577 			"/>
			<path fill="#1D71B8" d="M1492.833,101.997c0,7.926-0.203,13.599-0.612,17.013c-0.405,3.418-1.612,6.299-3.617,8.647
				c-2.003,2.345-4.979,3.519-8.923,3.519c-3.884,0-6.946-1.239-9.184-3.723c-2.238-2.485-3.657-5.776-4.253-9.876
				c-0.343-2.552-0.516-8.133-0.516-16.742V46.577h-13.903v53.436c0,11.211,0.453,19.683,1.36,25.421
				c0.627,3.875,1.927,7.576,3.899,11.105c1.975,3.53,4.658,6.4,8.057,8.608c3.398,2.212,8.384,3.316,14.961,3.316
				c5.449,0,9.863-1.015,13.246-3.043c3.382-2.026,6.082-4.747,8.104-8.165c2.02-3.416,3.404-7.604,4.158-12.572
				c0.752-4.966,1.127-13.46,1.127-25.49V46.577h-13.904V101.997z"/>
			<polygon fill="#1D71B8" points="1559.088,107.121 1531.843,107.121 1531.843,46.577 1517.939,46.577 1517.939,146.755 
				1531.843,146.755 1531.843,124.067 1559.088,124.067 1559.088,146.755 1572.992,146.755 1572.992,46.577 1559.088,46.577 			"/>
			<path fill="#1D71B8" d="M1606.931,46.577l-26.822,100.178h14.75l5.685-22.753h27.526l6.013,22.753h15.126l-27.575-100.178
				H1606.931z M1604.819,107.121l9.299-37.172l9.489,37.172H1604.819z"/>
			<polygon fill="#1D71B8" points="1656.604,63.524 1692.776,63.524 1656.604,128.512 1656.604,146.755 1711.094,146.755 
				1711.094,129.876 1673.376,129.876 1711.094,62.292 1711.094,46.577 1656.604,46.577 			"/>
		</g>
		<g>
			<path fill-rule="evenodd" clip-rule="evenodd" fill="#006633" d="M1541.104-28.508c-37.62,9.53-69.761,32.79-90.78,64.14h-76.5
				c27.859-41.55,75.26-68.89,129.04-68.89c2.13,0,4.24,0.04,6.35,0.13C1520.174-32.688,1530.844-31.108,1541.104-28.508z"/>
			<path fill-rule="evenodd" clip-rule="evenodd" fill="#FCEA10" d="M1711.094,6.382l-9.6,5.48l-41.65,23.77l-27.1-15.47
				l-24.15-13.78h10.59c-18.369-16.48-40.689-28.64-65.369-34.89c-2.101-0.54-4.221-1.03-6.351-1.47
				c-10.3-2.15-20.97-3.28-31.899-3.28h76.5c39.819,0,76.14,14.99,103.619,39.64H1711.094z"/>
		</g>
		<g>
			<path fill-rule="evenodd" clip-rule="evenodd" fill="#006633" d="M1543.813,223.549c37.62-9.53,69.761-32.79,90.78-64.14h76.5
				c-27.859,41.55-75.26,68.89-129.04,68.89c-2.13,0-4.24-0.04-6.35-0.13C1564.744,227.729,1554.074,226.149,1543.813,223.549z"/>
			<path fill-rule="evenodd" clip-rule="evenodd" fill="#FCEA10" d="M1373.824,188.659l9.6-5.48l41.65-23.77l27.1,15.47l24.15,13.78
				h-10.59c18.369,16.48,40.689,28.64,65.369,34.89c2.101,0.54,4.221,1.03,6.351,1.47c10.3,2.15,20.97,3.28,31.899,3.28h-76.5
				c-39.819,0-76.14-14.99-103.619-39.64H1373.824z"/>
		</g>
	</g>
	<g>
		<polygon fill="#F9B233" points="1920.684,430.546 1908.188,370.002 1887.379,370.002 1887.379,470.18 1900.298,470.18 
			1900.298,391.323 1913.919,447.427 1927.308,447.427 1940.976,391.323 1940.976,470.18 1953.893,470.18 1953.893,370.002 
			1933.038,370.002 		"/>
		<path fill="#F9B233" d="M2006.388,425.422c0,7.926-0.203,13.599-0.612,17.013c-0.405,3.418-1.612,6.299-3.617,8.647
			c-2.003,2.345-4.979,3.519-8.923,3.519c-3.884,0-6.946-1.239-9.184-3.723c-2.238-2.485-3.657-5.776-4.253-9.876
			c-0.343-2.552-0.516-8.133-0.516-16.742v-54.258h-13.903v53.436c0,11.211,0.453,19.683,1.36,25.421
			c0.627,3.875,1.927,7.576,3.899,11.105c1.975,3.53,4.658,6.4,8.057,8.608c3.398,2.212,8.384,3.316,14.961,3.316
			c5.449,0,9.863-1.015,13.246-3.043c3.382-2.026,6.082-4.747,8.104-8.165c2.02-3.416,3.404-7.604,4.158-12.572
			c0.752-4.966,1.127-13.46,1.127-25.49v-52.616h-13.904V425.422z"/>
		<polygon fill="#F9B233" points="2072.643,430.546 2045.397,430.546 2045.397,370.002 2031.494,370.002 2031.494,470.18 
			2045.397,470.18 2045.397,447.492 2072.643,447.492 2072.643,470.18 2086.547,470.18 2086.547,370.002 2072.643,370.002 		"/>
		<path fill="#F9B233" d="M2120.485,370.002l-26.822,100.178h14.75l5.685-22.753h27.526l6.013,22.753h15.126l-27.575-100.178
			H2120.485z M2118.374,430.546l9.299-37.172l9.489,37.172H2118.374z"/>
		<polygon fill="#009FE3" points="2170.159,386.949 2206.331,386.949 2170.159,451.937 2170.159,470.18 2224.648,470.18 
			2224.648,453.301 2186.931,453.301 2224.648,385.717 2224.648,370.002 2170.159,370.002 		"/>
		<path fill-rule="evenodd" clip-rule="evenodd" fill="#F9B233" d="M2054.659,294.917c-37.62,9.53-69.761,32.79-90.78,64.14h-76.5
			c27.859-41.55,75.26-68.89,129.04-68.89c2.13,0,4.24,0.04,6.35,0.13C2033.729,290.737,2044.398,292.316,2054.659,294.917z"/>
		<path fill-rule="evenodd" clip-rule="evenodd" fill="#009FE3" d="M2224.648,329.807l-9.6,5.48l-41.65,23.77l-27.1-15.47
			l-24.15-13.78h10.59c-18.369-16.48-40.689-28.64-65.369-34.89c-2.101-0.54-4.221-1.03-6.351-1.47
			c-10.3-2.15-20.97-3.28-31.899-3.28h76.5c39.819,0,76.14,14.99,103.619,39.64H2224.648z"/>
		<path fill-rule="evenodd" clip-rule="evenodd" fill="#009FE3" d="M2057.368,546.974c37.62-9.53,69.761-32.79,90.78-64.14h76.5
			c-27.859,41.549-75.26,68.89-129.04,68.89c-2.13,0-4.24-0.04-6.35-0.13C2078.299,551.153,2067.629,549.574,2057.368,546.974z"/>
		<path fill-rule="evenodd" clip-rule="evenodd" fill="#F9B233" d="M1887.379,512.084l9.6-5.48l41.65-23.77l27.1,15.47l24.15,13.78
			h-10.59c18.369,16.479,40.689,28.64,65.369,34.89c2.101,0.54,4.221,1.03,6.351,1.47c10.3,2.15,20.97,3.28,31.899,3.28h-76.5
			c-39.819,0-76.14-14.99-103.619-39.64H1887.379z"/>
	</g>
	<rect x="2491.618" y="-141.381" fill="#1D1D1B" width="599.97" height="817.757"/>
	<polygon fill="#009FE3" points="2632.132,116.6 2622.53,80.504 2606.54,80.504 2606.54,133.42 2616.467,133.42 2616.467,91.767 
		2626.934,133.42 2637.222,133.42 2647.726,91.767 2647.726,133.42 2657.65,133.42 2657.65,80.504 2641.626,80.504 	"/>
	<path fill="#009FE3" d="M2697.989,109.778c0,4.187-0.156,7.183-0.471,8.987c-0.312,1.805-1.238,3.327-2.779,4.567
		c-1.539,1.239-3.825,1.858-6.856,1.858c-2.984,0-5.338-0.655-7.058-1.966c-1.72-1.313-2.81-3.051-3.268-5.217
		c-0.264-1.348-0.396-4.295-0.396-8.843v-28.66h-10.684v28.226c0,5.922,0.348,10.396,1.046,13.428
		c0.481,2.047,1.48,4.001,2.996,5.866c1.517,1.865,3.579,3.381,6.19,4.547c2.611,1.168,6.443,1.751,11.497,1.751
		c4.187,0,7.579-0.536,10.179-1.607c2.599-1.07,4.674-2.508,6.227-4.313c1.552-1.805,2.616-4.017,3.195-6.641
		c0.577-2.624,0.865-7.109,0.865-13.464V80.504h-10.684V109.778z"/>
	<polygon fill="#009FE3" points="2748.901,101.332 2727.965,101.332 2727.965,80.504 2717.281,80.504 2717.281,133.42 
		2727.965,133.42 2727.965,110.283 2748.901,110.283 2748.901,133.42 2759.585,133.42 2759.585,80.504 2748.901,80.504 	"/>
	<path fill="#009FE3" d="M2785.665,80.504l-20.611,52.916h11.335l4.367-12.019h21.151l4.621,12.019h11.623l-21.189-52.916H2785.665z
		 M2784.042,112.485l7.146-19.635l7.292,19.635H2784.042z"/>
	<polygon fill="#009FE3" points="2823.835,89.457 2851.63,89.457 2823.835,123.784 2823.835,133.42 2865.706,133.42 
		2865.706,124.505 2836.723,124.505 2865.706,88.806 2865.706,80.504 2823.835,80.504 	"/>
	<polygon fill="#F9B233" points="2738.461,60.611 2606.54,34.758 2606.54,73.099 2616.467,73.099 2616.467,49.831 2738.407,73.916 
		2855.78,49.831 2855.78,73.099 2865.706,73.099 2865.706,34.758 	"/>
	<polygon fill="#F9B233" points="2855.78,148.648 2847.315,148.648 2847.315,158.574 2855.78,158.574 2865.706,158.574 
		2865.706,148.648 2865.706,140.185 2855.78,140.185 	"/>
	<polygon fill="#F9B233" points="2616.467,140.185 2606.54,140.185 2606.54,148.648 2606.54,158.574 2616.467,158.574 
		2624.931,158.574 2624.931,148.648 2616.467,148.648 	"/>
	<g>
		<polygon fill="#F9B233" points="2609.148,430.546 2596.653,370.002 2575.844,370.002 2575.844,470.18 2588.763,470.18 
			2588.763,391.323 2602.384,447.427 2615.772,447.427 2629.44,391.323 2629.44,470.18 2642.357,470.18 2642.357,370.002 
			2621.503,370.002 		"/>
		<path fill="#F9B233" d="M2694.853,425.422c0,7.926-0.203,13.599-0.612,17.013c-0.405,3.418-1.612,6.299-3.617,8.647
			c-2.003,2.345-4.979,3.519-8.923,3.519c-3.884,0-6.946-1.239-9.184-3.723c-2.238-2.485-3.657-5.776-4.253-9.876
			c-0.343-2.552-0.516-8.133-0.516-16.742v-54.258h-13.903v53.436c0,11.211,0.453,19.683,1.36,25.421
			c0.627,3.875,1.927,7.576,3.899,11.105c1.975,3.53,4.658,6.4,8.057,8.608c3.398,2.212,8.384,3.316,14.961,3.316
			c5.449,0,9.863-1.015,13.246-3.043c3.382-2.026,6.082-4.747,8.104-8.165c2.02-3.416,3.404-7.604,4.158-12.572
			c0.752-4.966,1.127-13.46,1.127-25.49v-52.616h-13.904V425.422z"/>
		<polygon fill="#F9B233" points="2761.107,430.546 2733.862,430.546 2733.862,370.002 2719.959,370.002 2719.959,470.18 
			2733.862,470.18 2733.862,447.492 2761.107,447.492 2761.107,470.18 2775.012,470.18 2775.012,370.002 2761.107,370.002 		"/>
		<path fill="#F9B233" d="M2808.95,370.002l-26.822,100.178h14.75l5.685-22.753h27.526l6.013,22.753h15.126l-27.575-100.178H2808.95
			z M2806.839,430.546l9.299-37.172l9.489,37.172H2806.839z"/>
		<polygon fill="#009FE3" points="2858.624,386.949 2894.796,386.949 2858.624,451.937 2858.624,470.18 2913.113,470.18 
			2913.113,453.301 2875.396,453.301 2913.113,385.717 2913.113,370.002 2858.624,370.002 		"/>
		<path fill-rule="evenodd" clip-rule="evenodd" fill="#F9B233" d="M2743.124,294.917c-37.62,9.53-69.761,32.79-90.78,64.14h-76.5
			c27.859-41.55,75.26-68.89,129.04-68.89c2.13,0,4.24,0.04,6.35,0.13C2722.193,290.737,2732.863,292.316,2743.124,294.917z"/>
		<path fill-rule="evenodd" clip-rule="evenodd" fill="#009FE3" d="M2913.113,329.807l-9.6,5.48l-41.65,23.77l-27.1-15.47
			l-24.15-13.78h10.59c-18.369-16.48-40.689-28.64-65.369-34.89c-2.101-0.54-4.221-1.03-6.351-1.47
			c-10.3-2.15-20.97-3.28-31.899-3.28h76.5c39.819,0,76.14,14.99,103.619,39.64H2913.113z"/>
		<path fill-rule="evenodd" clip-rule="evenodd" fill="#009FE3" d="M2745.833,546.974c37.62-9.53,69.761-32.79,90.78-64.14h76.5
			c-27.859,41.549-75.26,68.89-129.04,68.89c-2.13,0-4.24-0.04-6.35-0.13C2766.764,551.153,2756.094,549.574,2745.833,546.974z"/>
		<path fill-rule="evenodd" clip-rule="evenodd" fill="#F9B233" d="M2575.844,512.084l9.6-5.48l41.65-23.77l27.1,15.47l24.15,13.78
			h-10.59c18.369,16.479,40.689,28.64,65.369,34.89c2.101,0.54,4.221,1.03,6.351,1.47c10.3,2.15,20.97,3.28,31.899,3.28h-76.5
			c-39.819,0-76.14-14.99-103.619-39.64H2575.844z"/>
	</g>
	<g>
		<g>
			<polygon fill="#1D71B8" points="1397.074,478.465 1386.573,412.851 1369.083,412.851 1369.083,521.419 1379.941,521.419 
				1379.941,435.957 1391.39,496.76 1402.643,496.76 1414.13,435.957 1414.13,521.419 1424.986,521.419 1424.986,412.851 
				1407.458,412.851 			"/>
			<path fill="#1D71B8" d="M1469.106,472.912c0,8.59-0.171,14.737-0.515,18.438c-0.341,3.704-1.355,6.826-3.04,9.372
				c-1.684,2.541-4.185,3.813-7.499,3.813c-3.265,0-5.839-1.344-7.719-4.035c-1.882-2.693-3.074-6.26-3.574-10.703
				c-0.289-2.766-0.434-8.813-0.434-18.145v-58.802h-11.686v57.911c0,12.149,0.381,21.331,1.144,27.55
				c0.526,4.199,1.619,8.211,3.277,12.036c1.659,3.825,3.915,6.936,6.771,9.329c2.855,2.397,7.046,3.594,12.574,3.594
				c4.579,0,8.289-1.1,11.133-3.298c2.842-2.196,5.111-5.145,6.811-8.849c1.697-3.702,2.861-8.241,3.495-13.625
				c0.632-5.382,0.947-14.588,0.947-27.626v-57.022h-11.687V472.912z"/>
			<polygon fill="#1D71B8" points="1524.791,478.465 1501.893,478.465 1501.893,412.851 1490.207,412.851 1490.207,521.419 
				1501.893,521.419 1501.893,496.831 1524.791,496.831 1524.791,521.419 1536.478,521.419 1536.478,412.851 1524.791,412.851 			
				"/>
			<path fill="#1D71B8" d="M1565.002,412.851l-22.543,108.568h12.396l4.777-24.659h23.136l5.054,24.659h12.713l-23.177-108.568
				H1565.002z M1563.228,478.465l7.815-40.285l7.976,40.285H1563.228z"/>
			<polygon fill="#1D71B8" points="1606.751,431.217 1637.152,431.217 1606.751,501.647 1606.751,521.419 1652.548,521.419 
				1652.548,503.126 1620.848,503.126 1652.548,429.882 1652.548,412.851 1606.751,412.851 			"/>
		</g>
		<g>
			<path fill-rule="evenodd" clip-rule="evenodd" fill="#006633" d="M1509.677,331.476c-31.618,10.329-58.632,35.537-76.298,69.513
				h-64.296c23.415-45.029,63.254-74.66,108.454-74.66c1.79,0,3.564,0.044,5.337,0.142
				C1492.086,326.946,1501.053,328.658,1509.677,331.476z"/>
			<path fill-rule="evenodd" clip-rule="evenodd" fill="#FCEA10" d="M1652.548,369.288l-8.068,5.939l-35.006,25.761l-22.776-16.767
				l-20.298-14.934h8.9c-15.438-17.86-34.198-31.039-54.94-37.813c-1.766-0.584-3.547-1.115-5.338-1.592
				c-8.656-2.33-17.624-3.556-26.811-3.556h64.297c33.467,0,63.992,16.245,87.088,42.96H1652.548z"/>
		</g>
		<g>
			<path fill-rule="evenodd" clip-rule="evenodd" fill="#006633" d="M1511.954,604.645c31.618-10.328,58.632-35.536,76.298-69.512
				h64.296c-23.415,45.028-63.254,74.659-108.454,74.659c-1.79,0-3.564-0.043-5.337-0.141
				C1529.545,609.174,1520.578,607.463,1511.954,604.645z"/>
			<path fill-rule="evenodd" clip-rule="evenodd" fill="#FCEA10" d="M1369.083,566.833l8.068-5.939l35.006-25.761l22.776,16.766
				l20.298,14.935h-8.9c15.438,17.859,34.198,31.038,54.94,37.812c1.766,0.585,3.548,1.116,5.338,1.593
				c8.656,2.33,17.624,3.555,26.811,3.555h-64.296c-33.468,0-63.993-16.245-87.089-42.959H1369.083z"/>
		</g>
	</g>
	<g>
		<polygon fill="#F9B233" points="162.31,430.546 149.815,370.002 129.005,370.002 129.005,470.18 141.924,470.18 141.924,391.323 
			155.545,447.427 168.934,447.427 182.602,391.323 182.602,470.18 195.519,470.18 195.519,370.002 174.665,370.002 		"/>
		<path fill="#F9B233" d="M248.014,425.422c0,7.926-0.203,13.599-0.612,17.013c-0.405,3.418-1.612,6.299-3.617,8.647
			c-2.003,2.345-4.979,3.519-8.923,3.519c-3.884,0-6.946-1.239-9.184-3.723c-2.238-2.485-3.657-5.776-4.253-9.876
			c-0.343-2.552-0.516-8.133-0.516-16.742v-54.258h-13.903v53.436c0,11.211,0.453,19.683,1.36,25.421
			c0.627,3.875,1.927,7.576,3.899,11.105c1.975,3.53,4.658,6.4,8.057,8.608c3.398,2.212,8.384,3.316,14.961,3.316
			c5.449,0,9.863-1.015,13.246-3.043c3.382-2.026,6.082-4.747,8.104-8.165c2.02-3.416,3.404-7.604,4.158-12.572
			c0.752-4.966,1.127-13.46,1.127-25.49v-52.616h-13.904V425.422z"/>
		<polygon fill="#F9B233" points="314.27,430.546 287.024,430.546 287.024,370.002 273.121,370.002 273.121,470.18 287.024,470.18 
			287.024,447.492 314.27,447.492 314.27,470.18 328.174,470.18 328.174,370.002 314.27,370.002 		"/>
		<path fill="#F9B233" d="M362.111,370.002L335.289,470.18h14.75l5.686-22.753h27.525l6.014,22.753h15.125l-27.574-100.178H362.111z
			 M360,430.546l9.299-37.172l9.49,37.172H360z"/>
		<polygon fill="#009FE3" points="411.785,386.949 447.957,386.949 411.785,451.937 411.785,470.18 466.275,470.18 466.275,453.301 
			428.557,453.301 466.275,385.717 466.275,370.002 411.785,370.002 		"/>
		<path fill-rule="evenodd" clip-rule="evenodd" fill="#F9B233" d="M296.286,294.916c-37.62,9.531-69.761,32.791-90.78,64.141h-76.5
			c27.859-41.55,75.26-68.891,129.04-68.891c2.13,0,4.24,0.041,6.35,0.131C275.355,290.736,286.025,292.316,296.286,294.916z"/>
		<path fill-rule="evenodd" clip-rule="evenodd" fill="#009FE3" d="M466.275,329.807l-9.6,5.48l-41.65,23.77l-27.1-15.471
			l-24.15-13.779h10.59c-18.369-16.48-40.689-28.641-65.369-34.891c-2.102-0.539-4.221-1.029-6.352-1.469
			c-10.299-2.15-20.969-3.281-31.899-3.281h76.5c39.818,0,76.139,14.99,103.619,39.641H466.275z"/>
		<path fill-rule="evenodd" clip-rule="evenodd" fill="#009FE3" d="M298.995,546.974c37.621-9.53,69.761-32.79,90.781-64.14h76.5
			c-27.859,41.549-75.26,68.89-129.041,68.89c-2.129,0-4.24-0.04-6.35-0.13C319.926,551.153,309.256,549.574,298.995,546.974z"/>
		<path fill-rule="evenodd" clip-rule="evenodd" fill="#F9B233" d="M129.005,512.084l9.6-5.48l41.65-23.77l27.1,15.47l24.15,13.78
			h-10.59c18.369,16.479,40.689,28.64,65.369,34.89c2.101,0.54,4.221,1.03,6.351,1.47c10.3,2.15,20.97,3.28,31.9,3.28h-76.5
			c-39.819,0-76.14-14.99-103.619-39.64H129.005z"/>
	</g>
</g>
<g id="Réteg_2">
</g>
</svg>
