<?xml version="1.0" encoding="UTF-8" standalone="no"?>
<svg width="367px" height="463px" viewBox="0 0 367 463" version="1.1" xmlns="http://www.w3.org/2000/svg" xmlns:xlink="http://www.w3.org/1999/xlink">
    <!-- Generator: Sketch 3.6.1 (26313) - http://www.bohemiancoding.com/sketch -->
    <title>customer_service</title>
    <desc>Created with Sketch.</desc>
    <defs></defs>
    <g id="Page-1" stroke="none" stroke-width="1" fill="none" fill-rule="evenodd" fill-opacity="0.535127944">
        <g id="flaticon1466668936-svg" fill="#000000">
            <path d="M324.96,351.135 L267.334,336.728 L250.041,319.435 C247.026,316.42 243.014,314.919 238.999,314.937 L238.999,300.99 C241.613,299.159 244.157,297.196 246.632,295.122 C249.735,294.502 271.051,290.105 292.731,282.214 C326.557,269.903 343,255.931 343,239.5 C343,143.829 320.804,75.256 277.029,35.686 C242.68,4.636 203.687,0 183.5,0 C163.313,0 124.32,4.636 89.971,35.686 C46.196,75.256 24,143.829 24,239.5 C24,255.931 40.443,269.903 74.268,282.214 C95.948,290.105 117.264,294.502 120.367,295.122 C122.843,297.196 125.386,299.159 128,300.99 L128,314.937 C123.985,314.919 119.973,316.42 116.958,319.435 L99.665,336.728 L42.04,351.135 C17.287,357.322 0,379.463 0,404.977 L0,439.5 C0,452.458 10.542,463 23.5,463 L343.5,463 C356.458,463 367,452.458 367,439.5 L367,404.977 C367,379.463 349.713,357.322 324.96,351.135 L324.96,351.135 Z M239.435,330.042 L253.704,344.311 L222.308,388.266 C222.274,388.314 222.183,388.441 221.969,388.471 C221.754,388.5 221.634,388.403 221.588,388.367 L195.257,367.302 L238.756,330.017 C238.952,329.846 239.251,329.857 239.435,330.042 L239.435,330.042 Z M87,183.5 C87,165.937 90.139,148.495 96.123,132.582 C113.048,140.547 141.219,149.558 174.132,157.426 C211.628,166.39 249.682,172.547 279.895,174.588 C279.958,178.13 280.001,181.958 280.001,183.5 C280.001,219.661 267.177,252.149 246.912,274.255 C239.361,274.287 231.002,273.114 221.858,270.731 C222.597,268.452 223.001,266.023 223.001,263.5 C223.001,250.542 212.459,240 199.501,240 C186.543,240 176,250.542 176,263.5 C176,276.458 186.542,287 199.5,287 C204.026,287 208.256,285.71 211.846,283.484 C218.694,285.562 225.235,287.079 231.463,288.035 C217.326,298.188 200.946,304 183.5,304 C130.29,304 87,249.944 87,183.5 L87,183.5 Z M75.25,216 L63.5,216 C63.224,216 63,215.776 63,215.5 L63,175.5 C63,175.224 63.224,175 63.5,175 L72.224,175 C72.076,177.828 72,180.663 72,183.5 C72,194.7 73.132,205.584 75.25,216 L75.25,216 Z M275.107,266.168 C273.389,267.388 271.571,268.464 269.661,269.409 C277.372,258.008 283.58,245.054 287.923,231 L295.088,231 C293.396,240.501 288.607,256.583 275.107,266.168 L275.107,266.168 Z M304,215.5 C304,215.776 303.776,216 303.5,216 L291.75,216 C293.868,205.584 295,194.7 295,183.5 C295,182.145 294.964,178.733 294.908,175.3 L303.5,175.3 C303.776,175.3 304,175.524 304,175.8 L304,215.5 L304,215.5 Z M199.5,272 C194.813,272 191,268.187 191,263.5 C191,258.813 194.813,255 199.5,255 C204.187,255 208,258.813 208,263.5 C208,268.187 204.187,272 199.5,272 L199.5,272 Z M39,239.5 C39,148.249 59.533,83.42 100.029,46.813 C130.651,19.133 165.47,15 183.5,15 C201.53,15 236.349,19.133 266.971,46.813 C307.467,83.42 328,148.249 328,239.5 C328,247.95 315.047,256.641 297.831,264.028 C306.607,251.28 309.541,237.006 310.514,229.305 C315.542,226.74 319,221.522 319,215.501 L319,175.801 C319,167.254 312.047,160.301 303.5,160.301 L289.28,160.301 C288.73,160.143 288.158,160.038 287.563,160.009 C222.709,156.898 124.71,132.398 96.08,115.679 C94.24,114.605 92.03,114.364 90,115.016 C87.971,115.669 86.316,117.154 85.448,119.1 C79.746,131.882 75.799,145.735 73.718,160 L63.5,160 C54.953,160 48,166.953 48,175.5 L48,215.5 C48,224.047 54.953,231 63.5,231 L79.077,231 C84.173,247.491 91.841,262.464 101.486,275.194 C71.157,266.731 39,252.815 39,239.5 L39,239.5 Z M183.5,319 C197.78,319 211.44,315.717 224,309.745 L224,322.907 L183.5,357.621 L143,322.908 L143,309.746 C155.56,315.717 169.22,319 183.5,319 L183.5,319 Z M127.565,330.042 C127.748,329.858 128.047,329.846 128.244,330.016 L171.743,367.301 L145.412,388.366 C145.366,388.403 145.244,388.501 145.03,388.471 C144.817,388.441 144.725,388.314 144.692,388.266 L113.296,344.31 L127.565,330.042 L127.565,330.042 Z M45.677,365.687 L100.365,352.015 L132.487,396.986 C134.951,400.434 138.771,402.746 142.969,403.329 C143.672,403.427 144.376,403.475 145.079,403.475 C148.579,403.475 152.026,402.285 154.782,400.08 L176,383.105 L176,423.5 C176,427.642 179.358,431 183.5,431 C187.642,431 191,427.642 191,423.5 L191,383.105 L212.218,400.08 C214.974,402.285 218.42,403.474 221.92,403.474 C222.623,403.474 223.329,403.426 224.031,403.328 C228.229,402.745 232.049,400.433 234.513,396.985 L266.635,352.015 L321.323,365.687 C322.932,366.089 324.496,366.588 326.014,367.169 L297.156,401.799 C291.252,408.883 288.001,417.864 288.001,427.086 L288.001,448 L79,448 L79,427.085 C79,417.863 75.749,408.882 69.845,401.798 L40.987,367.168 C42.504,366.588 44.068,366.089 45.677,365.687 L45.677,365.687 Z M15,439.5 L15,404.977 C15,393.31 19.955,382.61 28.1,375.135 L58.322,411.401 C61.984,415.796 64.001,421.366 64.001,427.086 L64.001,448 L23.5,448 C18.813,448 15,444.187 15,439.5 L15,439.5 Z M352,439.5 C352,444.187 348.187,448 343.5,448 L303,448 L303,427.085 C303,421.365 305.017,415.795 308.679,411.4 L338.901,375.134 C347.045,382.609 352.001,393.309 352.001,404.976 L352.001,439.5 L352,439.5 Z" id="Shape"></path>
        </g>
    </g>
</svg>