<?xml version="1.0" encoding="UTF-8" standalone="no"?>
<svg width="487px" height="487px" viewBox="0 0 487 487" version="1.1" xmlns="http://www.w3.org/2000/svg" xmlns:xlink="http://www.w3.org/1999/xlink">
    <!-- Generator: Sketch 3.6.1 (26313) - http://www.bohemiancoding.com/sketch -->
    <title>repair</title>
    <desc>Created with Sketch.</desc>
    <defs></defs>
    <g id="Page-1" stroke="none" stroke-width="1" fill="none" fill-rule="evenodd" fill-opacity="0.628934556">
        <g id="flaticon1466667884-svg" fill="#FFFFFF">
            <g id="Capa_1">
                <g id="Group">
                    <g id="Shape">
                        <path d="M13.361,409.063 C-4.453,426.877 -4.453,455.726 13.361,473.54 C22.268,482.447 33.941,486.885 45.615,486.885 C57.289,486.885 68.962,482.447 77.869,473.54 L227.586,323.792 L163.078,259.345 L13.361,409.063 L13.361,409.063 Z"></path>
                        <path d="M387.548,131.577 L452.755,97.863 L486.893,31.866 L455.065,0.038 L389.098,34.207 L355.324,99.353 L276.012,178.756 L308.175,210.98 L387.548,131.577 Z"></path>
                        <path d="M401.835,304.641 L395.694,304.033 C384.568,304.033 374.019,306.313 364.17,309.961 L177,122.761 C180.648,112.912 182.928,102.363 182.928,91.237 L182.32,85.096 C179.098,37.642 140.004,0.038 91.73,0.038 C77.685,0.038 64.522,3.473 52.636,9.158 L113.222,69.744 C116.414,72.936 118.603,76.705 120.062,80.688 C124.044,91.449 121.886,104.035 113.222,112.729 C107.294,118.657 99.512,121.636 91.73,121.636 C88.143,121.636 84.586,120.846 81.181,119.569 C77.199,118.049 73.429,115.921 70.237,112.699 L9.652,52.143 C3.967,64.029 0.532,77.192 0.532,91.237 C0.532,139.511 38.136,178.605 85.59,181.827 L91.731,182.435 C102.857,182.435 113.406,180.155 123.255,176.538 L310.394,363.708 C306.807,373.557 304.527,384.106 304.527,395.232 L305.165,401.373 C308.327,448.857 347.451,486.431 395.725,486.431 C409.77,486.431 422.963,483.057 434.819,477.311 L374.233,416.725 C371.071,413.563 368.852,409.764 367.332,405.812 C363.35,395.051 365.508,382.435 374.233,373.741 C380.1,367.813 387.943,364.834 395.725,364.834 C399.312,364.834 402.838,365.594 406.304,366.901 C410.286,368.391 414.086,370.519 417.217,373.741 L477.803,434.327 C483.518,422.41 486.923,409.278 486.923,395.233 C486.893,346.957 449.289,307.863 401.835,304.641 L401.835,304.641 Z"></path>
                    </g>
                </g>
            </g>
        </g>
    </g>
</svg>