<?xml version="1.0" encoding="UTF-8" standalone="no"?>
<svg width="512px" height="450px" viewBox="0 0 512 450" version="1.1" xmlns="http://www.w3.org/2000/svg" xmlns:xlink="http://www.w3.org/1999/xlink">
    <!-- Generator: Sketch 3.6.1 (26313) - http://www.bohemiancoding.com/sketch -->
    <title>security_camera</title>
    <desc>Created with Sketch.</desc>
    <defs></defs>
    <g id="Page-1" stroke="none" stroke-width="1" fill="none" fill-rule="evenodd" fill-opacity="0.535127944">
        <g id="flaticon1466669596-svg">
            <g id="Group">
                <path d="M496,32.984 L476.22,32.984 L479.438,21.187 C480.751,16.39 479.743,11.234 476.719,7.265 C473.688,3.312 468.985,0.984 464,0.984 L16,0.984 C7.164,0.984 2.84217094e-14,8.14 2.84217094e-14,16.984 L2.84217094e-14,192.984 C2.84217094e-14,201.828 7.164,208.984 16,208.984 L136.008,208.984 L179.203,266.578 C182.219,270.609 186.961,272.984 192,272.984 L208,272.984 L208,304.984 C208,331.468 186.453,353.015 159.969,353.015 L80,353.015 L80,337.015 C80,331.671 77.328,326.671 72.875,323.702 L24.875,291.702 C19.953,288.421 13.625,288.108 8.453,290.905 C3.25,293.688 0,299.109 0,305.016 L0,433.016 C0,438.922 3.25,444.344 8.453,447.125 C10.812,448.391 13.414,449.016 16,449.016 C19.102,449.016 22.195,448.11 24.875,446.328 L72.875,414.328 C77.328,411.359 80,406.359 80,401.015 L80,385.015 L159.969,385.015 C204.102,385.015 240,349.109 240,304.984 L240,272.984 L256,272.984 C261.039,272.984 265.781,270.609 268.797,266.578 L311.992,208.984 L416,208.984 C423.219,208.984 429.539,204.156 431.438,197.187 L441.312,160.984 L496,160.984 C504.836,160.984 512,153.828 512,144.984 L512,48.984 C512,40.141 504.836,32.984 496,32.984 L496,32.984 Z M48,392.453 L32,403.125 L32,334.906 L48,345.578 L48,392.453 L48,392.453 Z M248,240.984 L200,240.984 L176,208.984 L272,208.984 L248,240.984 L248,240.984 Z M403.781,176.984 L304,176.984 L144,176.984 L32,176.984 L32,32.984 L443.055,32.984 L403.781,176.984 L403.781,176.984 Z M480,128.984 L450.038,128.984 L467.493,64.984 L480,64.984 L480,128.984 L480,128.984 Z" id="Shape" fill="#162D25"></path>
                <circle id="Oval" fill="#2A4439" cx="80" cy="80.984" r="16"></circle>
                <circle id="Oval" fill="#2A4439" cx="144" cy="80.984" r="16"></circle>
            </g>
        </g>
    </g>
</svg>