<?xml version="1.0" encoding="UTF-8" standalone="no"?>
<svg width="439px" height="439px" viewBox="0 0 439 439" version="1.1" xmlns="http://www.w3.org/2000/svg" xmlns:xlink="http://www.w3.org/1999/xlink">
    <!-- Generator: Sketch 3.6.1 (26313) - http://www.bohemiancoding.com/sketch -->
    <title>Untitled</title>
    <desc>Created with Sketch.</desc>
    <defs></defs>
    <g id="Page-1" stroke="none" stroke-width="1" fill="none" fill-rule="evenodd" fill-opacity="0.535127944">
        <g id="flaticon1466684283-svg" fill="#162D25">
            <g id="Capa_1">
                <path d="M409.133,109.203 C389.525,75.611 362.928,49.014 329.335,29.407 C295.736,9.801 259.058,0 219.273,0 C179.492,0 142.803,9.801 109.21,29.407 C75.615,49.011 49.018,75.608 29.41,109.203 C9.801,142.8 0,179.489 0,219.267 C0,259.047 9.804,295.73 29.407,329.329 C49.014,362.921 75.611,389.518 109.206,409.127 C142.803,428.732 179.489,438.534 219.269,438.534 C259.049,438.534 295.739,428.732 329.334,409.127 C362.927,389.525 389.523,362.921 409.129,329.329 C428.732,295.733 438.532,259.045 438.532,219.267 C438.533,179.485 428.732,142.795 409.133,109.203 L409.133,109.203 Z M361.74,259.517 L332.617,288.646 C328.996,292.26 324.716,294.07 319.77,294.07 C314.822,294.07 310.534,292.26 306.923,288.646 L219.269,200.993 L131.623,288.646 C128.007,292.26 123.725,294.07 118.776,294.07 C113.826,294.07 109.543,292.26 105.926,288.646 L76.806,259.517 C73.189,255.91 71.38,251.619 71.38,246.67 C71.38,241.728 73.189,237.443 76.806,233.822 L206.426,104.206 C210.043,100.589 214.324,98.782 219.273,98.782 C224.222,98.782 228.511,100.589 232.119,104.206 L361.74,233.822 C365.353,237.443 367.164,241.727 367.164,246.67 C367.164,251.618 365.357,255.909 361.74,259.517 L361.74,259.517 Z" id="Shape"></path>
            </g>
        </g>
    </g>
</svg>